<svg width="56" height="56" viewBox="0 0 56 56" fill="none" xmlns="http://www.w3.org/2000/svg">
<path d="M50.1667 12.4833C50.1667 14.6066 49.1633 16.4966 47.6233 17.71C46.5033 18.5966 45.08 19.1333 43.5167 19.1333C39.83 19.1333 36.8667 16.17 36.8667 12.4833C36.8667 10.92 37.4033 9.51998 38.29 8.37665H38.3133C39.5033 6.83665 41.3933 5.83331 43.5167 5.83331C47.2033 5.83331 50.1667 8.79665 50.1667 12.4833Z" stroke="#13123A" stroke-width="1.5" stroke-linecap="round" stroke-linejoin="round"/>
<path d="M19.1333 12.4833C19.1333 16.17 16.17 19.1333 12.4833 19.1333C10.92 19.1333 9.51999 18.5966 8.37666 17.71C6.83666 16.4966 5.83333 14.6066 5.83333 12.4833C5.83333 8.79665 8.79666 5.83331 12.4833 5.83331C14.6067 5.83331 16.4967 6.83665 17.71 8.37665C18.5967 9.51998 19.1333 10.92 19.1333 12.4833Z" stroke="#13123A" stroke-width="1.5" stroke-linecap="round" stroke-linejoin="round"/>
<path d="M50.1667 43.5167C50.1667 47.2034 47.2033 50.1667 43.5167 50.1667C41.3933 50.1667 39.5033 49.1634 38.3133 47.6234H38.29C37.4033 46.5034 36.8667 45.08 36.8667 43.5167C36.8667 39.83 39.83 36.8667 43.5167 36.8667C45.08 36.8667 46.48 37.4034 47.6233 38.29V38.3134C49.1633 39.5034 50.1667 41.3934 50.1667 43.5167Z" stroke="#13123A" stroke-width="1.5" stroke-linecap="round" stroke-linejoin="round"/>
<path d="M19.1333 43.5167C19.1333 45.08 18.5967 46.48 17.71 47.6234C16.4967 49.1867 14.6067 50.1667 12.4833 50.1667C8.79666 50.1667 5.83333 47.2034 5.83333 43.5167C5.83333 41.3934 6.83666 39.5034 8.37666 38.3134V38.29C9.49666 37.4034 10.92 36.8667 12.4833 36.8667C16.17 36.8667 19.1333 39.83 19.1333 43.5167Z" stroke="#13123A" stroke-width="1.5" stroke-linecap="round" stroke-linejoin="round"/>
<path d="M50.1667 28C50.1667 31.7333 49.2567 35.21 47.6233 38.29C46.5033 37.4033 45.08 36.8666 43.5167 36.8666C39.83 36.8666 36.8667 39.83 36.8667 43.5166C36.8667 45.08 37.4033 46.48 38.29 47.6233C35.21 49.2566 31.7333 50.1666 28 50.1666C24.29 50.1666 20.79 49.2566 17.71 47.6233C18.5967 46.5033 19.1333 45.08 19.1333 43.5166C19.1333 39.83 16.17 36.8666 12.4833 36.8666C10.92 36.8666 9.51999 37.4033 8.37666 38.29C6.74333 35.21 5.83333 31.7333 5.83333 28C5.83333 24.29 6.74333 20.79 8.37666 17.71C9.51999 18.5966 10.92 19.1333 12.4833 19.1333C16.17 19.1333 19.1333 16.17 19.1333 12.4833C19.1333 10.92 18.5967 9.51998 17.71 8.37665C20.79 6.74331 24.29 5.83331 28 5.83331C31.7333 5.83331 35.21 6.74331 38.29 8.37665C37.4033 9.49665 36.8667 10.92 36.8667 12.4833C36.8667 16.17 39.83 19.1333 43.5167 19.1333C45.08 19.1333 46.48 18.5966 47.6233 17.71C49.2567 20.79 50.1667 24.29 50.1667 28Z" stroke="#13123A" stroke-width="1.5" stroke-linecap="round" stroke-linejoin="round"/>
</svg>
