<svg width="56" height="56" viewBox="0 0 56 56" fill="none" xmlns="http://www.w3.org/2000/svg">
<path d="M21 51.3334H35C46.6667 51.3334 51.3334 46.6667 51.3334 35V21C51.3334 9.33335 46.6667 4.66669 35 4.66669H21C9.33335 4.66669 4.66669 9.33335 4.66669 21V35C4.66669 46.6667 9.33335 51.3334 21 51.3334Z" stroke="#13123A" stroke-width="1.5" stroke-linecap="round" stroke-linejoin="round"/>
<path d="M21 23.3333C23.5773 23.3333 25.6666 21.244 25.6666 18.6667C25.6666 16.0893 23.5773 14 21 14C18.4227 14 16.3333 16.0893 16.3333 18.6667C16.3333 21.244 18.4227 23.3333 21 23.3333Z" stroke="#13123A" stroke-width="1.5" stroke-linecap="round" stroke-linejoin="round"/>
<path d="M6.22998 44.2166L17.7333 36.4933C19.5766 35.2566 22.2366 35.3966 23.8933 36.82L24.6633 37.4966C26.4833 39.06 29.4233 39.06 31.2433 37.4966L40.95 29.1666C42.77 27.6033 45.71 27.6033 47.53 29.1666L51.3333 32.4333" stroke="#13123A" stroke-width="1.5" stroke-linecap="round" stroke-linejoin="round"/>
</svg>
