<svg width="56" height="56" viewBox="0 0 56 56" fill="none" xmlns="http://www.w3.org/2000/svg">
<path d="M28.0467 6.78998C20.3234 6.78998 14.0467 13.0666 14.0467 20.79V27.5333C14.0467 28.9566 13.44 31.1266 12.7167 32.34L10.0334 36.7966C8.37669 39.55 9.52002 42.6066 12.5534 43.6333C22.61 46.9933 33.46 46.9933 43.5167 43.6333C46.34 42.7 47.5767 39.3633 46.0367 36.7966L43.3534 32.34C42.6534 31.1266 42.0467 28.9566 42.0467 27.5333V20.79C42.0467 13.09 35.7467 6.78998 28.0467 6.78998Z" stroke="#13123A" stroke-width="1.5" stroke-miterlimit="10" stroke-linecap="round"/>
<path d="M32.3633 7.46667C31.64 7.25667 30.8933 7.09334 30.1233 7.00001C27.8833 6.72001 25.7366 6.88334 23.73 7.46667C24.4066 5.74001 26.0866 4.52667 28.0466 4.52667C30.0066 4.52667 31.6866 5.74001 32.3633 7.46667Z" stroke="#13123A" stroke-width="1.5" stroke-miterlimit="10" stroke-linecap="round" stroke-linejoin="round"/>
<path d="M35.0467 44.4733C35.0467 48.3233 31.8967 51.4733 28.0467 51.4733C26.1334 51.4733 24.36 50.68 23.1 49.42C21.84 48.16 21.0467 46.3867 21.0467 44.4733" stroke="#13123A" stroke-width="1.5" stroke-miterlimit="10"/>
</svg>
